<?xml version="1.0" encoding="UTF-8"?>
<svg width="212px" height="57px" viewBox="0 0 212 57" version="1.1" xmlns="http://www.w3.org/2000/svg" xmlns:xlink="http://www.w3.org/1999/xlink">
    <!-- Generator: Sketch 49.1 (51147) - http://www.bohemiancoding.com/sketch -->
    <title>Group</title>
    <desc>Created with Sketch.</desc>
    <defs></defs>
    <g id="Page-1" stroke="none" stroke-width="1" fill="none" fill-rule="evenodd">
        <g id="-Landing" transform="translate(-635.000000, -142.000000)">
            <g id="Angular-/-Landing">
                <g id="angular-3" transform="translate(635.000000, 142.000000)">
                    <g id="Group">
                        <g id="Group_2" transform="translate(62.000000, 12.000000)" fill="#FFFFFF">
                            <g id="Vector">
                                <path d="M0.358002527,30.2775 L0.358002527,4.36842 L3.7119,4.36842 L19.6533,25.2191 L19.6533,4.36842 L22.8416,4.36842 L22.8416,30.2775 L19.4877,30.2775 L3.54628,9.22123 L3.54628,30.2775 L0.358002527,30.2775 Z M48.8033,29.2494 C46.6916,30.0308 44.4142,30.442 42.0127,30.442 C32.5721,30.442 27.8517,25.9593 27.8517,16.9528 C27.8517,8.43985 32.4064,4.16279 41.5158,4.16279 C44.1244,4.16279 46.5674,4.53292 48.8033,5.23206 L48.8033,8.11084 C46.5674,7.24721 44.2486,6.83595 41.8885,6.83595 C34.7666,6.83595 31.2057,10.20825 31.2057,16.8706 C31.2057,24.0676 34.7252,27.6455 41.7228,27.6455 C42.8408,27.6455 44.083,27.481 45.4494,27.1931 L45.4494,18.5156 L48.8033,18.5156 L48.8033,29.2494 Z M54.1861,20.284 L54.1861,4.36842 L57.54,4.36842 L57.54,20.284 C57.54,25.2602 60.0244,27.7689 65.0346,27.7689 C70.0033,27.7689 72.5291,25.2602 72.5291,20.284 L72.5291,4.36842 L75.883,4.36842 L75.883,20.284 C75.883,27.0697 72.2806,30.4831 65.0346,30.4831 C57.7885,30.4831 54.1861,27.0697 54.1861,20.284 Z M85.2408,4.36842 L85.2408,27.5632 L98.9049,27.5632 L98.9049,30.2775 L81.8869,30.2775 L81.8869,4.36842 L85.2408,4.36842 Z M103.749,30.2775 L100.2299,30.2775 L113.19,0.955 L126.15,30.2775 L122.424,30.2775 L119.07,22.1347 L110.457,22.1347 L111.368,19.4204 L117.952,19.4204 L113.066,7.69959 L103.749,30.2775 Z M129.753,30.2775 L129.753,4.36842 L140.891,4.36842 C145.86,4.36842 148.344,6.4247 148.344,10.57838 C148.344,13.9507 145.901,16.4593 141.056,18.0632 L150,30.2775 L145.57,30.2775 L137.288,18.639 L137.288,16.4593 C142.257,15.6779 144.783,13.7862 144.783,10.74288 C144.783,8.3576 143.417,7.16496 140.642,7.16496 L133.189,7.16496 L133.189,30.2775 L129.753,30.2775 Z" id="Shape"></path>
                            </g>
                        </g>
                        <g id="Vector_2" fill="#CC2B39">
                            <polygon id="Shape" points="0 9.45887 26.707 0 54.118 9.29437 49.6875 44.3745 26.707 57 4.09922 44.539"></polygon>
                        </g>
                        <g id="Vector_3" transform="translate(26.000000, 0.000000)" fill="#B32535">
                            <polygon id="Shape" points="28.1179 9.29437 0.707 0 0.707 57 23.6875 44.3745"></polygon>
                        </g>
                        <g id="Vector_4" transform="translate(10.000000, 6.000000)" fill="#FFFFFF">
                            <path d="M16.7483,0.662000314 L0.102999842,37.4282 L6.31394,37.3049 L9.66784,28.9975 L24.5327,28.9975 L28.1764,37.3871 L34.0975,37.5105 L16.7483,0.662000314 Z M16.7897,12.465 L22.421,24.1447 L11.8624,24.1447 L16.7897,12.465 Z" id="Shape"></path>
                        </g>
                    </g>
                </g>
            </g>
        </g>
    </g>
</svg>