<svg width="30" height="31" viewBox="0 0 30 31" version="1.1" xmlns="http://www.w3.org/2000/svg" xmlns:xlink="http://www.w3.org/1999/xlink">
<title>Fill 48 + Oval 2</title>
<desc>Created using Figma</desc>
<g id="Canvas" transform="translate(-2324 -158)">
<g id="Fill 48 + Oval 2" opacity="0.5">
<g id="Fill 48">
<use xlink:href="#path0_fill" transform="matrix(-1.83697e-16 1 -1 -1.83697e-16 2346.71 163.412)" fill="#FFFFFF"/>
</g>
<g id="Oval 2">
<use xlink:href="#path1_stroke" transform="translate(2324.5 159)" fill="#FFFFFF"/>
</g>
</g>
</g>
<defs>
<path id="path0_fill" fill-rule="evenodd" d="M 18.5677 8.5749C 18.5866 8.54677 18.6055 8.51816 18.6225 8.48857C 18.6404 8.45608 18.6564 8.42358 18.6719 8.39012C 18.6802 8.37218 18.6908 8.35569 18.6986 8.33726C 18.702 8.32756 18.7039 8.31689 18.7083 8.30767C 18.7219 8.27178 18.733 8.23589 18.7437 8.20001C 18.7524 8.17042 18.7612 8.14181 18.768 8.11174C 18.7762 8.07682 18.7806 8.04093 18.7864 8.00553C 18.7903 7.97449 18.7951 7.9449 18.798 7.91386C 18.8004 7.87749 18.8 7.84063 18.8 7.80377C 18.8 7.77419 18.8 7.74509 18.798 7.71551C 18.7956 7.67768 18.7898 7.64033 18.784 7.60202C 18.7796 7.57389 18.7762 7.54576 18.7694 7.51763C 18.7616 7.48077 18.7505 7.44391 18.7393 7.40754C 18.7306 7.37941 18.7219 7.35128 18.7117 7.32364C 18.7068 7.31103 18.7039 7.29793 18.6991 7.28532C 18.6899 7.26253 18.6768 7.24216 18.6661 7.22034C 18.653 7.19269 18.6394 7.16553 18.6244 7.13886C 18.6065 7.10588 18.5856 7.07436 18.5647 7.04332C 18.5478 7.01858 18.5318 6.99433 18.5133 6.97105C 18.4891 6.93953 18.4624 6.91043 18.4362 6.88133C 18.4236 6.86775 18.4134 6.8532 18.3998 6.83962L 11.9636 0.403386C 11.4258 -0.134462 10.5557 -0.134462 10.0193 0.403386C 9.48291 0.939295 9.48291 1.81081 10.0193 2.34721L 14.1102 6.4366L 1.3759 6.4366C 0.900617 6.4366 0.482075 6.67667 0.235218 7.04283C 0.0872973 7.26204 0 7.52685 0 7.81202C 0 8.19128 0.154225 8.53513 0.403023 8.78393C 0.65182 9.03321 0.995674 9.18695 1.3759 9.18695L 1.3759 9.18647L 14.1092 9.18647L 10.0188 13.2763C 9.48291 13.8127 9.48194 14.6833 10.0188 15.2206C 10.2875 15.4893 10.6396 15.6242 10.9917 15.6242C 11.3433 15.6242 11.6954 15.4898 11.9636 15.2216L 18.4003 8.78344C 18.4144 8.76986 18.4246 8.75386 18.4377 8.74028C 18.4634 8.71264 18.4886 8.68402 18.5119 8.65444C 18.5318 8.62873 18.5497 8.60206 18.5677 8.5749Z"/>
<path id="path1_stroke" d="M 14.5 29.5C 22.7843 29.5 29.5 22.7843 29.5 14.5L 28.5 14.5C 28.5 22.232 22.232 28.5 14.5 28.5L 14.5 29.5ZM 29.5 14.5C 29.5 6.21573 22.7843 -0.5 14.5 -0.5L 14.5 0.5C 22.232 0.5 28.5 6.76801 28.5 14.5L 29.5 14.5ZM 14.5 -0.5C 6.21573 -0.5 -0.5 6.21573 -0.5 14.5L 0.5 14.5C 0.5 6.76801 6.76801 0.5 14.5 0.5L 14.5 -0.5ZM -0.5 14.5C -0.5 22.7843 6.21573 29.5 14.5 29.5L 14.5 28.5C 6.76801 28.5 0.5 22.232 0.5 14.5L -0.5 14.5Z"/>
</defs>
</svg>
