<svg width="174" height="73" viewBox="0 0 174 73" fill="none" xmlns="http://www.w3.org/2000/svg">
<path fill-rule="evenodd" clip-rule="evenodd" d="M17.6141 6.89807C13.799 6.89807 10.9576 8.78118 10.9576 13.3131C10.9576 16.7277 12.8301 19.0986 17.4085 19.0986C21.289 19.0986 23.9248 16.7998 23.9248 13.1722C23.9248 9.06072 21.5663 6.89807 17.6141 6.89807ZM9.98633 38.8989C9.08355 40.0123 8.18396 41.1962 8.18396 42.5923C8.18396 45.3789 11.7186 46.2175 16.5743 46.2175C20.5965 46.2175 26.0754 45.934 26.0754 42.175C26.0754 39.9402 23.4395 39.8025 20.1089 39.5926L9.98633 38.8989ZM30.5128 7.10873C31.759 8.71229 33.0785 10.9438 33.0785 14.1502C33.0785 21.8877 27.0451 26.418 18.3097 26.418C16.0882 26.418 14.0771 26.1401 12.8301 25.7917L10.5409 29.4858L17.336 29.9031C29.3343 30.672 36.4051 31.0213 36.4051 40.2887C36.4051 48.3073 29.4028 52.836 17.336 52.836C4.7848 52.836 -1.36172e-06 49.6297 -1.36172e-06 44.123C-1.36172e-06 40.9855 1.38723 39.3163 3.81429 37.0118C1.52508 36.0394 0.763335 34.2973 0.763335 32.4142C0.763335 30.8795 1.52508 29.4858 2.77526 28.1602C4.02306 26.8377 5.40949 25.5113 7.07401 23.9782C3.67644 22.305 1.10995 18.6797 1.10995 13.5206C1.10995 5.50516 6.38079 -3.42217e-07 16.9886 -3.42217e-07C19.9711 -3.42217e-07 21.775 0.275539 23.3702 0.696856H36.8935V6.62013L30.5128 7.10873Z" transform="translate(86.6655 17.9108)" fill="#2F2606"/>
<path fill-rule="evenodd" clip-rule="evenodd" d="M0 36.315V30.8106L3.5378 30.3244C4.50911 30.1834 4.64695 29.9752 4.64695 28.9275V8.43275C4.64695 7.66781 4.43979 7.17761 3.74418 6.97015L0 5.64453L0.762541 0H15.1185V28.9275C15.1185 30.0449 15.1855 30.1834 16.2285 30.3244L19.7655 30.8106V36.315H0Z" transform="translate(126.812 17.9292)" fill="#2F2606"/>
<path fill-rule="evenodd" clip-rule="evenodd" d="M28.0873 44.9648C25.1041 46.4274 20.736 47.7522 16.7815 47.7522C8.52978 47.7522 5.41028 44.4097 5.41028 36.5288V18.2656C5.41028 17.8483 5.41029 17.5688 4.85333 17.5688H8.75393e-07V11.3643C6.1043 10.6659 8.52977 7.59813 9.29231 -3.66661e-08H15.8811V9.90175C15.8811 10.3879 15.8811 10.5986 16.4364 10.5986H26.2132V17.5688H15.8811V34.2284C15.8811 38.3415 16.8532 39.9434 20.5957 39.9434C22.5399 39.9434 24.5487 39.4564 26.2132 38.8293L28.0873 44.9648Z" transform="translate(145.913 6.57687)" fill="#2F2606"/>
<path fill-rule="evenodd" clip-rule="evenodd" d="M71.2507 33.248L39.5435 1.37689C37.7188 -0.458963 34.7571 -0.458963 32.93 1.37689L26.3461 7.99541L34.6982 16.3913C36.6392 15.7321 38.8646 16.1743 40.412 17.7298C41.9666 19.2949 42.4032 21.5513 41.7315 23.5089L49.7808 31.6004C51.7282 30.926 53.9752 31.3625 55.5306 32.9284C57.7042 35.1127 57.7042 38.653 55.5306 40.8389C53.3561 43.0248 49.8342 43.0248 47.6589 40.8389C46.0239 39.1937 45.6199 36.7795 46.4478 34.7547L38.9411 27.2086L38.9403 47.0666C39.4702 47.3309 39.9706 47.6825 40.412 48.1247C42.5857 50.3089 42.5857 53.8493 40.412 56.0368C38.2375 58.2219 34.7141 58.2219 32.5428 56.0368C30.3691 53.8493 30.3691 50.3089 32.5428 48.1247C33.0798 47.5856 33.7014 47.1779 34.3643 46.904V26.861C33.7014 26.5886 33.0806 26.1833 32.5428 25.6403C30.8958 23.987 30.4998 21.5577 31.3436 19.5248L23.1111 11.2474L1.3703 33.1006C-0.456767 34.9381 -0.456767 37.9153 1.3703 39.7512L33.0775 71.6231C34.9029 73.459 37.8638 73.459 39.6917 71.6231L71.2507 39.8994C73.0769 38.0627 73.0769 35.0839 71.2507 33.248Z" fill="#DE4C36"/>
<path d="M0 5.9299C0 9.77396 2.18702 12 5.96687 12C9.81223 12 12 9.77396 12 5.9299C12 2.09127 9.81223 0 5.96687 0C2.18702 0 0 2.09127 0 5.9299Z" transform="translate(130 2)" fill="#2F2606"/>
</svg>
