<?xml version="1.0" encoding="UTF-8" standalone="no"?>
<svg width="167px" height="107px" viewBox="0 0 167 107" version="1.1" xmlns="http://www.w3.org/2000/svg" xmlns:xlink="http://www.w3.org/1999/xlink" xmlns:sketch="http://www.bohemiancoding.com/sketch/ns">
    <!-- Generator: Sketch 3.5 (25232) - http://www.bohemiancoding.com/sketch -->
    <title>Group</title>
    <desc>Created with Sketch.</desc>
    <defs></defs>
    <g id="Gulp" stroke="none" stroke-width="1" fill="none" fill-rule="evenodd" sketch:type="MSPage">
        <g id="Gulp-/-Landing" sketch:type="MSArtboardGroup" transform="translate(-728.000000, -103.000000)" fill="#FF5351">
            <g id="Group" sketch:type="MSLayerGroup" transform="translate(735.000000, 110.000000)">
                <path d="M41.1070435,48.0206043 C40.999913,48.1784111 40.8063478,48.6755024 40.5257391,49.5112714 C40.2451304,50.3482543 39.9042609,51.3970625 39.5031304,52.6601237 C39.1026087,53.921971 38.6673913,55.3337348 38.2005217,56.896022 C37.7324348,58.4577022 37.2515652,60.0515507 36.7573043,61.6769606 C36.2630435,63.3035843 35.7888696,64.896219 35.3347826,66.4585061 C34.8794783,68.0201863 34.4728696,69.4319501 34.1125217,70.6950113 C33.7515652,71.9562517 33.4514783,73.0141641 33.2104348,73.8669277 C32.97,74.7184773 32.8226957,75.2228521 32.7697391,75.3818728 C32.6358261,75.8862475 32.4221739,76.4464616 32.1287826,77.062515 C31.8341739,77.6773545 31.4872174,78.2618466 31.0866957,78.8141703 C30.6855652,79.3658871 30.2454783,79.8235268 29.764,80.1870893 C29.2825217,80.549438 28.7882609,80.7309158 28.2812174,80.7309158 C27.4253913,80.7309158 26.8045217,80.4468636 26.4173913,79.8793661 C26.0290435,79.3106547 25.836087,78.2703439 25.836087,76.7553987 L25.836087,76.0920033 C25.836087,75.8710738 25.8488696,75.6343636 25.8762609,75.3824797 C25.9024348,74.877498 26.1033043,73.9294434 26.4776522,72.5413507 C26.8513913,71.152651 27.2993913,69.5830804 27.8204348,67.8314251 C28.3414783,66.0797698 28.9026957,64.2655988 29.504087,62.387698 C30.1054783,60.5097973 30.646,58.829762 31.1274783,57.3451644 C29.7104348,58.9244461 28.1746957,60.4940166 26.5184348,62.0556968 C24.8609565,63.617984 23.1645217,65.0224644 21.427913,66.268531 C19.6906957,67.5164185 17.9406957,68.5336653 16.1773043,69.3220923 C14.413913,70.1099123 12.7162609,70.5056432 11.0867826,70.5056432 C9.21626087,70.5056432 7.60626087,70.0947386 6.25678261,69.2747503 C4.90730435,68.453548 3.79217391,67.3810688 2.91017391,66.0554919 C2.02817391,64.7299149 1.37321739,63.2313574 0.945913043,61.5586055 C0.518,59.8858536 0.304347826,58.2137086 0.304347826,56.5409567 L0.304347826,55.9249033 C0.304347826,55.7361421 0.317130435,55.546774 0.344521739,55.3574058 C0.504608696,52.3275156 0.938608696,49.2193289 1.64713043,46.0316319 C2.35504348,42.8439348 3.28330435,39.6720185 4.43313043,36.5164898 C5.58173913,33.361568 6.91113043,30.2758384 8.42130435,27.2617288 C9.93026087,24.2482262 11.5737391,21.3998138 13.3511304,18.7170984 C15.127913,16.035597 17.0185217,13.5659209 19.0223478,11.3086769 C21.0261739,9.05264684 23.0835652,7.1116234 25.1951304,5.48621353 C27.3054783,3.86141061 29.4365217,2.591066 31.5876522,1.67578665 C33.7381739,0.761114257 35.8698261,0.303474584 37.9801739,0.303474584 C40.4113043,0.303474584 42.7633043,0.966263076 45.0343478,2.29123311 C47.3047826,3.61681009 49.4291304,5.7635893 51.4073913,8.72914294 C51.8608696,9.39193143 52.1487826,10.0626103 52.2686957,10.7405725 C52.3886087,11.4197486 52.4488696,12.0582591 52.4488696,12.6579249 C52.4488696,14.077579 52.108,15.1992211 51.4268696,16.0192094 C50.7457391,16.8404116 49.9373913,17.2501023 49.0018261,17.2501023 C48.1466087,17.2501023 47.3522609,16.800353 46.6169565,15.9008543 C45.8816522,15.0013556 45.059913,13.7158373 44.1517391,12.0430854 C43.2965217,10.5281403 42.3542609,9.43199007 41.3261739,8.7534209 C40.2974783,8.07485173 39.1817391,7.73556715 37.9789565,7.73556715 C36.1084348,7.73556715 34.1113043,8.50942734 31.9869565,10.0553269 C29.8626087,11.6018333 27.7583478,13.6460381 25.6741739,16.1861204 C23.5893913,18.7268096 21.5922609,21.6292406 19.6815652,24.895841 C17.7714783,28.1624414 16.0805217,31.5073383 14.6111304,34.9317455 C13.1411304,38.3561527 11.9724348,41.7332179 11.1044348,45.0611201 C10.2358261,48.3908433 9.80182609,51.3806749 9.80182609,54.0324358 C9.80182609,54.9155468 9.86208696,55.8235428 9.982,56.7533889 C10.1025217,57.6844489 10.3289565,58.5293222 10.6637391,59.2861878 C10.9973043,60.0436604 11.4513913,60.6669972 12.0266087,61.1555912 C12.6012174,61.6466131 13.3292174,61.8893928 14.2112174,61.8893928 C15.1997391,61.8893928 16.3221739,61.5586055 17.577913,60.89521 C18.8330435,60.2330285 20.1362609,59.3650912 21.4857391,58.2920051 C22.8346087,57.2189189 24.1907826,56.0044136 25.5542609,54.6466684 C26.9171304,53.2907439 28.1856522,51.9178249 29.3616522,50.5285182 C30.5370435,49.1404255 31.5797391,47.8063512 32.487913,46.5281163 C33.396087,45.2504883 34.0772174,44.1379505 34.531913,43.1911098 L38.2595652,32.0663385 C38.7136522,30.8676138 39.3077391,30.0160642 40.0430435,29.5104755 C40.7777391,29.0061007 41.5325217,28.7530029 42.308,28.7530029 C42.6817391,28.7530029 43.0554783,28.8167326 43.4298261,28.9423711 C43.8035652,29.0686165 44.1377391,29.265875 44.4317391,29.5341465 C44.7257391,29.8024181 44.9588696,30.149593 45.1329565,30.5756713 C45.3064348,31.0017496 45.3934783,31.498841 45.3934783,32.0663385 C45.3934783,33.5812836 45.2595652,35.0015446 44.9929565,36.3271216 C44.7257391,37.6539125 44.3848696,38.9467142 43.9709565,40.2091685 C43.5564348,41.4710158 43.0956522,42.7419674 42.5886087,44.0195954 C42.0815652,45.2978303 41.5873043,46.6319046 41.1070435,48.0206043 L41.1070435,48.0206043 Z" id="Shape" sketch:type="MSShapeGroup"></path>
                <path d="M91.6482609,57.2990362 C90.4716522,58.8771041 89.1026957,60.4151132 87.5401739,61.9142777 C85.9770435,63.4134421 84.3664348,64.7469095 82.7101739,65.9146797 C81.0526957,67.0818429 79.4232174,68.0207933 77.8205217,68.7309238 C76.2172174,69.4410543 74.7746087,69.7961196 73.492087,69.7961196 C72.2095652,69.7961196 71.1674783,69.3700413 70.3652174,68.5184916 C69.5641739,67.6669419 69.1630435,66.2151195 69.1630435,64.1630244 C69.1630435,62.7112019 69.3766957,61.0226694 69.804,59.0974266 C69.1088696,60.3289265 68.2414783,61.5756001 67.1993913,62.8374474 C66.1566957,64.0999016 64.967913,65.2518912 63.6318261,66.2934159 C62.2957391,67.3349407 60.7995652,68.1786001 59.1426957,68.8250009 C57.4858261,69.4714018 55.6816522,69.7961196 53.732,69.7961196 C52.8506087,69.7961196 52.0014783,69.6850479 51.1864348,69.4641184 C50.3707826,69.2437958 49.6567826,68.8656665 49.0426087,68.3285165 C48.4272174,67.7925804 47.9335652,67.0751665 47.5592174,66.1744539 C47.1848696,65.2761691 46.998,64.1472437 46.998,62.7901053 C46.998,62.758544 47.0515652,62.2772333 47.1586957,61.3461733 C47.2646087,60.4157202 47.6054783,58.9481171 48.1806957,56.943364 C48.7546957,54.9404317 49.644,52.3445102 50.8461739,49.1568131 C52.0489565,45.9691161 53.7453913,42.1040638 55.936087,37.5598354 C56.4973043,36.3605038 57.1449565,35.5004568 57.8796522,34.9796945 C58.6149565,34.4589321 59.4093043,34.1985509 60.2645217,34.1985509 C60.6388696,34.1985509 61.026,34.2543902 61.4271304,34.3636411 C61.8282609,34.4753197 62.2013913,34.6476933 62.5495652,34.8844034 C62.8965217,35.1211136 63.1771304,35.4215535 63.3913913,35.7832952 C63.6056522,36.1462508 63.7121739,36.5638318 63.7121739,37.0378591 C63.7121739,37.3534727 63.672,37.6539125 63.5916522,37.9361439 C63.4577391,38.4745078 63.1710435,39.1755341 62.7297391,40.0428644 C62.2884348,40.9114087 61.7746957,41.9061984 61.1873043,43.0260196 C60.5986957,44.1464477 59.9778261,45.3536696 59.3234783,46.6476853 C58.6685217,47.9417009 58.0610435,49.2824516 57.4998261,50.6711513 C56.9386087,52.0604579 56.4577391,53.4722217 56.0572174,54.9076565 C55.656087,56.3436982 55.4290435,57.7402883 55.376087,59.0962127 C55.376087,59.6649241 55.5093913,60.1856865 55.7766087,60.6584999 C56.0432174,61.1319202 56.483913,61.3692373 57.0993043,61.3692373 C58.835913,61.3692373 60.4921739,60.800526 62.0693043,59.6643171 C63.6458261,58.5287152 65.1012174,57.1163445 66.4385217,55.4278119 C67.774,53.7404932 68.9834783,51.9251083 70.0651304,49.9840848 C71.1473913,48.0430614 72.050087,46.268342 72.7707826,44.6587128 C73.2784348,43.5856267 73.7252174,42.4336372 74.1135652,41.2027443 C74.5006957,39.9724583 74.9213043,38.8368564 75.376,37.7947247 C75.830087,36.7531999 76.3511304,35.8858696 76.9385217,35.1915197 C77.525913,34.4971699 78.2612174,34.1499949 79.1432174,34.1499949 C80.1049565,34.1499949 80.8658261,34.5135575 81.4276522,35.2382548 C81.9888696,35.964773 82.2688696,36.8321033 82.2688696,37.8420667 C82.2688696,38.4107781 82.0893043,39.1913147 81.7283478,40.1848905 C81.3667826,41.1796802 80.9126957,42.3158891 80.3648696,43.5935171 C79.8176522,44.8711451 79.2229565,46.2361737 78.582,47.6879961 C77.9404348,49.1404255 77.3451304,50.615312 76.7985217,52.1138695 C76.250087,53.6136409 75.7966087,55.081244 75.4356522,56.5172857 C75.0746957,57.9527205 74.8945217,59.2861878 74.8945217,60.5164738 C74.8945217,61.6532895 75.481913,62.220787 76.6573043,62.220787 C77.4851304,62.220787 78.5144348,61.9367348 79.7427826,61.3698443 C80.9729565,60.8011329 82.2615652,60.0042087 83.6110435,58.9790715 C84.959913,57.9539344 86.3093913,56.7461055 87.6588696,55.3580128 C89.0077391,53.9693131 90.2044348,52.4701486 91.245913,50.8605194 L91.6482609,57.2990362 L91.6482609,57.2990362 Z" id="Shape" sketch:type="MSShapeGroup"></path>
                <path d="M92.8912174,54.9307206 C92.5972174,55.6572387 92.309913,56.501505 92.0293043,57.4641264 C91.748087,58.4267478 91.6086957,59.2861878 91.6086957,60.0436604 C91.6086957,60.5164738 91.6890435,60.89521 91.8491304,61.1798692 C92.0098261,61.4639214 92.3172174,61.6059475 92.771913,61.6059475 C93.3325217,61.6059475 94.0337391,61.409296 94.8755652,61.0141721 C95.7167826,60.6196551 96.6249565,60.0982858 97.6013043,59.4518849 C98.5770435,58.806091 99.5923478,58.0637922 100.647217,57.2268093 C101.702087,56.3910403 102.751478,55.522496 103.793565,54.6236043 C104.836261,53.7234987 105.83087,52.8246069 106.779826,51.9257152 C107.728174,51.0256096 108.576696,50.197124 109.325391,49.4402584 C109.539043,49.2193289 109.792261,49.0609152 110.08687,48.966838 C110.379652,48.872154 110.634087,48.8248119 110.848348,48.8248119 C111.382174,48.8248119 111.824087,49.0457414 112.171043,49.4882074 C112.517391,49.9300664 112.691478,50.5127376 112.691478,51.2398627 C112.691478,51.9020442 112.504,52.6437361 112.13087,53.4643314 C111.756522,54.2855336 111.102174,55.0903482 110.166,55.8781682 C108.455565,57.7408952 106.732957,59.5077242 104.995739,61.1804761 C103.258522,62.8532281 101.529217,64.3281145 99.806,65.6057425 C98.0821739,66.8845844 96.3717391,67.9018312 94.6753043,68.6599107 C92.9782609,69.4167764 91.3286957,69.7955126 89.7247826,69.7955126 C88.6291304,69.7955126 87.7136522,69.6219252 86.9795652,69.2753572 C86.2436522,68.9275753 85.6568696,68.454155 85.2161739,67.8557031 C84.7748696,67.2554304 84.4607826,66.5459068 84.273913,65.7247046 C84.0864348,64.9041093 83.993913,64.0373859 83.993913,63.1214996 C83.993913,61.5749931 84.1874783,59.9896419 84.5746087,58.3630181 C84.9617391,56.7388221 85.4225217,55.2469411 85.9569565,53.8904097 C86.891913,51.4280169 87.8414783,48.9838326 88.8032174,46.5530012 C89.7643478,44.1233837 90.6463478,41.898308 91.4492174,39.8777742 L103.592696,9.34519634 C104.073565,8.11430343 104.721217,7.24636612 105.53687,6.74138441 C106.351913,6.23700965 107.173043,5.98391185 108.002087,5.98391185 C108.829304,5.98391185 109.585304,6.25218338 110.267043,6.78872645 C110.947565,7.32587646 111.289043,8.19320682 111.289043,9.39253838 C111.289043,9.9606428 111.174609,10.5603086 110.947565,11.1909288 C110.720522,11.8233698 110.433217,12.5007251 110.086261,13.2266363 C109.417913,14.71002 108.623565,16.5247981 107.701391,18.6697564 C106.779217,20.8165356 105.790087,23.1514691 104.734609,25.6757707 C103.679739,28.2012861 102.59687,30.8281621 101.489043,33.5576126 C100.379391,36.287063 99.2971304,38.9461073 98.2416522,41.5341385 C97.1867826,44.1227767 96.1982609,46.5754583 95.276087,48.895218 C94.353913,51.2149778 93.5589565,53.2270142 92.8912174,54.9307206 L92.8912174,54.9307206 Z" id="Shape" sketch:type="MSShapeGroup"></path>
                <path d="M149.685565,46.3630261 C150.059913,46.1105353 150.408087,45.9059934 150.728261,45.7469727 C151.048435,45.5903798 151.355826,45.5102625 151.650435,45.5102625 C152.237217,45.5102625 152.678522,45.7712507 152.97313,46.2914061 C153.266522,46.8121685 153.413826,47.451286 153.413826,48.2087585 C153.413826,49.0305677 153.234261,49.8651228 152.872696,50.7178864 C152.512348,51.5694361 151.971217,52.2795666 151.249304,52.847671 C148.389652,55.3725796 145.838,57.6759516 143.594957,59.7596081 C141.350087,61.8420507 139.231826,63.6337647 137.241391,65.1329291 C135.250957,66.6320936 133.307391,67.7919734 131.410087,68.6119618 C129.512783,69.4319501 127.482174,69.8422477 125.317043,69.8422477 C123.286435,69.8422477 121.716609,69.3997818 120.608174,68.5166707 C119.49913,67.6335597 118.944609,66.4184475 118.944609,64.871334 L118.944609,64.5162688 C118.944609,64.406411 118.957391,64.2722752 118.984783,64.1138615 C119.090696,63.1676277 119.505826,62.078154 120.22713,60.847868 C120.949043,59.6169751 121.817043,58.3387401 122.832348,57.0137701 C123.847652,55.6888001 124.929304,54.3468355 126.07913,52.9896971 C127.227739,51.6337727 128.289304,50.3470404 129.265652,49.1313213 C130.240783,47.9174229 131.04913,46.8048851 131.689478,45.7943147 C132.331652,44.7849583 132.651826,43.9649699 132.651826,43.3331359 C132.651826,42.9543996 132.517304,42.6551736 132.251304,42.4336372 C131.984696,42.2133146 131.542783,42.1028499 130.928609,42.1028499 C129.85913,42.1028499 128.758,42.3784048 127.622174,42.9313355 C126.485739,43.4824454 125.363304,44.2247442 124.25487,45.1551973 C123.145826,46.0868642 122.062957,47.15206 121.008087,48.3507846 C119.952609,49.5507231 118.964696,50.7967898 118.041913,52.0908054 C117.119739,53.385428 116.27913,54.68612 115.517043,55.9965233 C114.755565,57.3057127 114.107304,58.5129346 113.573478,59.617582 C113.413391,59.964757 113.185739,60.4545649 112.891739,61.0851851 C112.597739,61.7170192 112.276957,62.4271497 111.930609,63.2161837 C111.582435,64.0046106 111.215391,64.8185295 110.827652,65.6530846 C110.439913,66.4900675 110.086261,67.2797083 109.766087,68.0201863 C109.445304,68.7618782 109.157391,69.4234528 108.904174,70.0085518 C108.649739,70.5918299 108.468957,70.9942372 108.363043,71.2151667 C108.228522,71.499219 108.008174,72.0351551 107.701391,72.824189 C107.394,73.6132229 107.040348,74.5357856 106.638609,75.593698 C106.238696,76.6503965 105.81687,77.7629344 105.376783,78.9307046 C104.936696,80.0984748 104.522174,81.2031223 104.134435,82.244647 C103.746696,83.2855648 103.405826,84.2008442 103.112435,84.9898781 C102.818435,85.7783051 102.630957,86.3154551 102.550609,86.5989004 C102.284,87.4194956 101.969304,88.1921419 101.608957,88.9186601 C101.248,89.6439643 100.834087,90.2830818 100.366609,90.8360125 C99.8991304,91.3871223 99.364087,91.8295883 98.7633043,92.1615895 C98.1613043,92.4929837 97.4868696,92.6580739 96.7393913,92.6580739 C95.7770435,92.6580739 94.9826957,92.4286471 94.353913,91.9716144 C93.7269565,91.5139747 93.4122609,90.6381471 93.4122609,89.3441314 C93.4122609,88.7129043 93.492,88.0665034 93.6526957,87.4043219 C93.814,86.7409265 94.0142609,86.0854214 94.254087,85.4390205 C94.4945217,84.7920127 94.7422609,84.1613925 94.9954783,83.546553 C95.249913,82.9304996 95.4842609,82.3393311 95.6966957,81.7706197 C97.139913,78.6144841 98.6093043,75.451065 100.105478,72.2791486 C101.602261,69.1072323 103.038174,65.9686981 104.413826,62.8586906 C105.790087,59.7505039 107.065913,56.6969426 108.242522,53.6986138 C109.417913,50.7008918 110.393043,47.8288083 111.167913,45.0835773 C111.381565,44.5148659 111.675565,43.7106582 112.049913,42.6685265 C112.423652,41.6276087 112.850957,40.6024716 113.332435,39.5919012 C113.813304,38.5825447 114.354435,37.7067171 114.955217,36.9656321 C115.556609,36.2239403 116.204261,35.8524874 116.898783,35.8524874 C117.968261,35.8524874 118.742522,36.0964809 119.223391,36.5862889 C119.70487,37.0760969 119.945304,37.7929039 119.945304,38.7403515 C119.945304,38.9297196 119.918522,39.2301595 119.865565,39.6392432 C119.811391,40.0495409 119.745043,40.4847234 119.665304,40.9417561 C119.584957,41.3993958 119.497913,41.8333645 119.404174,42.2442691 C119.310435,42.6545667 119.223391,42.9537926 119.143043,43.1425538 C120.131565,42.0694677 121.200435,41.0048788 122.350261,39.9475734 C123.49887,38.8908749 124.688261,37.93493 125.917826,37.0833803 C127.146174,36.2318306 128.402522,35.5374807 129.685043,34.9997238 C130.967565,34.4637877 132.250087,34.1955161 133.532609,34.1955161 C134.413391,34.1955161 135.289304,34.3217616 136.157304,34.5742524 C137.025304,34.8267433 137.800783,35.1975892 138.481913,35.6861833 C139.163652,36.1765982 139.717565,36.7914377 140.14487,37.5325227 C140.571565,38.2748215 140.785826,39.1348685 140.785826,40.1126636 C140.785826,41.4072861 140.458957,42.7874886 139.804609,44.2550916 C139.149652,45.7220878 138.327913,47.1975812 137.34,48.680358 C136.350261,50.1643487 135.281391,51.6076739 134.132783,53.0121542 C132.982957,54.4166346 131.908609,55.6948696 130.906087,56.8462521 C129.904174,57.9982417 129.062957,58.9766437 128.381217,59.7808514 C127.700087,60.5862729 127.345217,61.1307063 127.319043,61.4141516 C127.319043,61.7934948 127.439565,62.1006111 127.68,62.3373213 C127.920435,62.5740314 128.321565,62.6923865 128.882783,62.6923865 C129.33687,62.6923865 130.005217,62.4392887 130.887217,61.934307 C131.768,61.4299323 133.004261,60.5541046 134.594174,59.308038 C136.18287,58.0613644 138.201913,56.3886125 140.646435,54.2891753 C143.092783,52.1945937 146.105217,49.5507231 149.685565,46.3630261 L149.685565,46.3630261 Z" id="Shape" sketch:type="MSShapeGroup"></path>
            </g>
        </g>
    </g>
</svg>