<svg width="46" height="41" viewBox="0 0 46 41" version="1.1" xmlns="http://www.w3.org/2000/svg" xmlns:xlink="http://www.w3.org/1999/xlink">
<title>Group</title>
<desc>Created using Figma</desc>
<g id="Canvas" transform="translate(-2403 229)">
<g id="Group">
<g id="Subtract">
<use xlink:href="#path0_fill" transform="translate(2403 -229)" fill="#52D3FA"/>
</g>
<g id="Vector">
<use xlink:href="#path1_fill" transform="translate(2421.89 -212.654)" fill="#52D3FA"/>
</g>
</g>
</g>
<defs>
<path id="path0_fill" fill-rule="evenodd" d="M 36.3406 12.8214C 36.838 12.9648 37.3318 13.1206 37.8214 13.2888C 42.7896 15.0022 46 17.686 46 20.461C 46 23.3552 42.5691 26.1849 37.2956 27.9352C 37.0169 28.0277 36.7312 28.1167 36.4401 28.2027C 36.5439 28.6213 36.6366 29.0322 36.716 29.4346C 37.7571 34.7026 36.9554 39.0325 34.488 40.4634C 32.099 41.8488 28.2379 40.4878 24.3284 37.1177C 23.9034 36.7505 23.4888 36.3715 23.0849 35.9811C 22.7643 36.2917 22.444 36.5881 22.125 36.8675C 18.0889 40.4017 13.944 41.8681 11.4743 40.4415C 9.08332 39.0598 8.33189 35.0293 9.294 29.9531C 9.39914 29.4015 9.51964 28.8529 9.65538 28.308C 9.23757 28.1885 8.82281 28.0587 8.41149 27.9184C 3.3387 26.1817 0 23.3171 0 20.461C 0 17.696 3.11029 15.0301 7.98032 13.3292C 8.52469 13.1391 9.09368 12.9605 9.68286 12.7928C 9.55665 12.2871 9.44327 11.7781 9.34287 11.2665C 8.33372 6.10069 9.04382 1.97226 11.4412 0.58198C 13.9413 -0.867866 18.1051 0.689008 22.2592 4.38409C 22.5176 4.61441 22.7717 4.84953 23.0214 5.08935C 23.3942 4.72867 23.7761 4.37758 24.1667 4.03634C 28.1304 0.580986 32.055 -0.864612 34.4546 0.521777C 36.9574 1.96738 37.6903 6.35868 36.5694 11.8096C 36.4993 12.1483 36.4231 12.4856 36.3406 12.8214ZM 35.9049 26.3088C 36.1679 26.2306 36.4261 26.15 36.6775 26.0667C 41.2307 24.5552 44.0351 22.2425 44.0351 20.4611C 44.0351 18.7887 41.4386 16.6182 37.1818 15.1504C 36.7416 14.9985 36.2848 14.8547 35.8143 14.7181C 35.2484 16.5525 34.4931 18.4906 33.5755 20.4709C 34.5368 22.4991 35.3227 24.4625 35.9049 26.3088ZM 35.0094 35.899C 35.3143 34.2525 35.2486 32.1464 34.7883 29.8169C 34.7164 29.4534 34.6329 29.0816 34.5393 28.7022C 32.634 29.1433 30.5331 29.4666 28.3092 29.6642C 27.0449 31.4976 25.7495 33.1488 24.4534 34.569C 24.8406 34.9422 25.2268 35.295 25.6101 35.6254C 28.9533 38.5076 32.0536 39.6003 33.5033 38.7596C 34.1845 38.3646 34.7353 37.3784 35.0094 35.899ZM 12.4562 38.736C 13.138 39.1298 14.266 39.1155 15.6823 38.6144C 17.2587 38.0566 19.0471 36.948 20.8319 35.385C 21.1306 35.1228 21.4228 34.8532 21.7083 34.5766C 20.3651 33.1324 19.0322 31.4834 17.7597 29.6893C 15.5305 29.5082 13.4448 29.2078 11.5607 28.7903C 11.4346 29.2971 11.3226 29.8073 11.2248 30.3203C 10.4021 34.6612 11.0051 37.8978 12.4562 38.736ZM 3.68194 23.2005C 4.95165 24.2895 6.80402 25.2876 9.04707 26.0557C 9.42263 26.1837 9.80125 26.3024 10.1826 26.4117C 10.7637 24.5141 11.5295 22.5218 12.4526 20.509C 11.5413 18.5259 10.7863 16.5647 10.2105 14.6891C 9.67803 14.8399 9.15007 15.0064 8.62728 15.1882C 4.46227 16.6429 1.96495 18.7833 1.96495 20.4611C 1.96495 21.2497 2.54107 22.2216 3.68194 23.2005ZM 12.4257 2.28575C 10.9809 3.12353 10.4068 6.46227 11.2714 10.8885C 11.3648 11.3641 11.4703 11.8375 11.5875 12.3081C 13.4914 11.8759 15.5624 11.5533 17.7259 11.3524C 18.9874 9.5687 20.3081 7.9321 21.6444 6.49445C 21.4137 6.27362 21.1835 6.0601 20.9542 5.85617C 17.3676 2.66586 13.9647 1.39328 12.4257 2.28575ZM 29.7149 13.4922C 30.1976 14.2502 30.664 15.0185 31.1137 15.7967C 31.5706 16.5872 32.0118 17.3866 32.4369 18.1946C 33.0188 16.8303 33.5128 15.4993 33.9092 14.2266C 32.5888 13.9246 31.1827 13.6778 29.7149 13.4922ZM 25.729 11.175C 24.8361 9.98334 23.9283 8.88495 23.022 7.90127C 22.1014 8.89634 21.1859 9.9931 20.2922 11.1738C 22.1035 11.0889 23.9177 11.0892 25.729 11.175ZM 13.58 18.1933C 13.9942 17.3889 14.4271 16.5943 14.8784 15.8102C 15.3303 15.0253 15.8005 14.2513 16.2886 13.4885C 14.8304 13.671 13.4307 13.9115 12.1183 14.2058C 12.5181 15.4967 13.0077 16.8336 13.58 18.1933ZM 12.0912 26.8914C 13.4033 27.1776 14.8241 27.4057 16.3305 27.5742C 15.8304 26.797 15.3489 26.0079 14.8863 25.2077C 14.433 24.4231 13.9982 23.6281 13.5822 22.8231C 12.9977 24.212 12.4973 25.5776 12.0912 26.8914ZM 20.3087 29.8419C 21.216 31.0396 22.145 32.1531 23.0763 33.16C 23.9766 32.167 24.8811 31.0518 25.7768 29.8323C 24.8646 29.8731 23.9377 29.894 23 29.894C 22.0873 29.894 21.1894 29.8765 20.3087 29.8419ZM 34.0004 26.8061C 33.5888 25.5146 33.0705 24.1563 32.4557 22.7524C 32.0291 23.576 31.5843 24.3901 31.1216 25.194C 30.6664 25.9849 30.1956 26.7667 29.7094 27.539C 31.2267 27.3566 32.6666 27.111 34.0004 26.8061ZM 27.2125 27.7775C 27.9865 26.6129 28.7224 25.4232 29.4193 24.2106C 30.1223 22.9911 30.7816 21.747 31.396 20.4805C 30.7752 19.2268 30.1138 17.9936 29.4129 16.7829C 28.716 15.5755 27.9768 14.3931 27.1966 13.2378C 25.8289 13.1334 24.4245 13.0787 23.0002 13.0787C 21.5823 13.0787 20.1796 13.1331 18.8116 13.2367C 18.0234 14.3936 17.2794 15.5802 16.5811 16.7938C 15.8827 18.0067 15.23 19.2459 14.6245 20.5084C 15.2316 21.7705 15.8862 23.0091 16.587 24.2214C 17.2912 25.4402 18.0411 26.6319 18.8352 27.7939C 20.1762 27.8809 21.5686 27.9256 23 27.9256C 24.4373 27.9256 25.8477 27.8752 27.2125 27.7775ZM 34.6447 11.4124C 35.6126 6.70598 35.0134 3.1172 33.4731 2.22717C 32.0269 1.39165 28.8529 2.56064 25.4568 5.52153C 25.0962 5.83665 24.7435 6.16071 24.399 6.49346C 25.7137 7.91248 27.0233 9.55198 28.2874 11.3551C 30.4571 11.559 32.5295 11.8873 34.4379 12.3285C 34.5123 12.0244 34.5813 11.7189 34.6447 11.4124Z"/>
<path id="path1_fill" d="M 4.10762 1.86715e-07C 6.37631 1.86715e-07 8.21525 1.84242 8.21525 4.11495C 8.21525 6.38769 6.37631 8.23011 4.10762 8.23011C 1.83914 8.23011 -2.60936e-07 6.38769 -2.60936e-07 4.11495C -2.60936e-07 1.84242 1.83914 1.86715e-07 4.10762 1.86715e-07Z"/>
</defs>
</svg>
