<svg width="1200" height="347" viewBox="0 0 1200 347" fill="none" xmlns="http://www.w3.org/2000/svg">
<mask id="mask0" mask-type="alpha" maskUnits="userSpaceOnUse" x="0" y="0" width="1200" height="347">
<path fill-rule="evenodd" clip-rule="evenodd" d="M0 0H1200V347H0V0Z" fill="white"/>
</mask>
<g mask="url(#mask0)">
<path fill-rule="evenodd" clip-rule="evenodd" d="M0 0H1440V679.403H0V0Z" transform="translate(0 -39.1453)" fill="#F0F0E8"/>
<g opacity="0.4">
<g opacity="0.2">
<rect width="15.5752" height="1703.31" transform="matrix(0.965947 0.258741 -0.258897 0.965905 383.597 -243.925)" fill="#A7742E"/>
<path d="M0 764.356L226.15 672.339C230.671 670.499 233.628 666.105 233.628 661.224V101.255C233.628 96.3424 230.634 91.9262 226.071 90.1075L0 0" transform="matrix(0.965947 0.258741 -0.258897 0.965905 308.748 65.4001)" stroke="#A7742E" stroke-width="4"/>
<ellipse cx="46.7255" cy="46.5597" rx="46.7255" ry="46.5597" transform="matrix(0.965947 0.258741 -0.258897 0.965905 275.667 8.33765)" fill="#A7742E"/>
<ellipse cx="15.5752" cy="15.5199" rx="15.5752" ry="15.5199" transform="matrix(0.965947 0.258741 -0.258897 0.965905 297.721 46.379)" fill="#F0F0E8"/>
<ellipse cx="46.7255" cy="46.5597" rx="46.7255" ry="46.5597" transform="matrix(0.965947 0.258741 -0.258897 0.965905 453.124 248.677)" fill="#A7742E"/>
<ellipse cx="15.5752" cy="15.5199" rx="15.5752" ry="15.5199" transform="matrix(0.965947 0.258741 -0.258897 0.965905 475.177 286.718)" fill="#F0F0E8"/>
</g>
<g opacity="0.2">
<rect width="16.8022" height="1837.5" transform="matrix(-0.965947 -0.258741 -0.258897 0.965905 1177.98 -974.573)" fill="#A7742E"/>
<path d="M0 824.572L244.555 725.066C249.076 723.226 252.033 718.832 252.033 713.951V108.591C252.033 103.678 249.039 99.2621 244.476 97.4434L0 0" transform="matrix(-0.965947 -0.258741 -0.258897 0.965905 1081 -645.226)" stroke="#A7742E" stroke-width="4"/>
<ellipse cx="50.4065" cy="50.2277" rx="50.4065" ry="50.2277" transform="matrix(-0.965947 -0.258741 -0.258897 0.965905 981.234 -78.3023)" fill="#A7742E"/>
<ellipse cx="50.4065" cy="50.2277" rx="50.4065" ry="50.2277" transform="matrix(-0.965947 -0.258741 -0.258897 0.965905 929.218 115.758)" fill="#A7742E"/>
<ellipse cx="16.8022" cy="16.7426" rx="16.8022" ry="16.7426" transform="matrix(-0.965947 -0.258741 -0.258897 0.965905 888.089 139.407)" fill="#F0F0E8"/>
<ellipse cx="50.4065" cy="50.2277" rx="50.4065" ry="50.2277" transform="matrix(-0.965947 -0.258741 -0.258897 0.965905 877.204 309.819)" fill="#A7742E"/>
<ellipse cx="16.8022" cy="16.7426" rx="16.8022" ry="16.7426" transform="matrix(-0.965947 -0.258741 -0.258897 0.965905 836.075 333.467)" fill="#F0F0E8"/>
</g>
</g>
</g>
</svg>
